HIERARCHY
ROOT mixamorigHips
{
	OFFSET -0.003559 -0.080472 -95.464935
	CHANNELS 6 Xposition Yposition Zposition Xrotation Yrotation Zrotation
	JOINT mixamorigSpine
	{
		OFFSET 0.000000 10.058830 -0.358160
		CHANNELS 3 Xrotation Yrotation Zrotation
		JOINT mixamorigSpine1
		{
			OFFSET -0.000000 11.742748 0.000000
			CHANNELS 3 Xrotation Yrotation Zrotation
			JOINT mixamorigSpine2
			{
				OFFSET -0.000000 13.420251 -0.000000
				CHANNELS 3 Xrotation Yrotation Zrotation
				JOINT mixamorigNeck
				{
					OFFSET -0.000000 15.097818 0.000001
					CHANNELS 3 Xrotation Yrotation Zrotation
					JOINT mixamorigHead
					{
						OFFSET 0.000000 8.085571 2.687786
						CHANNELS 3 Xrotation Yrotation Zrotation
						End Site
						{
							OFFSET 0.000000 21.499176 7.146702
						}
					}
				}
				JOINT mixamorigLeftShoulder
				{
					OFFSET 5.949117 13.247728 -0.064451
					CHANNELS 3 Xrotation Yrotation Zrotation
					JOINT mixamorigLeftArm
					{
						OFFSET -0.000000 12.472157 0.000006
						CHANNELS 3 Xrotation Yrotation Zrotation
						JOINT mixamorigLeftForeArm
						{
							OFFSET 0.000000 23.814892 0.000003
							CHANNELS 3 Xrotation Yrotation Zrotation
							JOINT mixamorigLeftHand
							{
								OFFSET 0.000000 24.556324 -0.000002
								CHANNELS 3 Xrotation Yrotation Zrotation
								JOINT mixamorigLeftHandThumb1
								{
									OFFSET -2.831983 2.535839 1.178036
									CHANNELS 3 Xrotation Yrotation Zrotation
									JOINT mixamorigLeftHandThumb2
									{
										OFFSET -0.652370 3.116265 -0.000000
										CHANNELS 3 Xrotation Yrotation Zrotation
										JOINT mixamorigLeftHandThumb3
										{
											OFFSET 0.143046 3.056093 0.000019
											CHANNELS 3 Xrotation Yrotation Zrotation
											End Site
											{
												OFFSET 0.509328 2.328846 -0.000004
											}
										}
									}
								}
								JOINT mixamorigLeftHandIndex1
								{
									OFFSET -3.336291 8.315767 0.101954
									CHANNELS 3 Xrotation Yrotation Zrotation
									JOINT mixamorigLeftHandIndex2
									{
										OFFSET 0.012762 3.045644 0.000017
										CHANNELS 3 Xrotation Yrotation Zrotation
										JOINT mixamorigLeftHandIndex3
										{
											OFFSET -0.004547 2.806752 0.000017
											CHANNELS 3 Xrotation Yrotation Zrotation
											End Site
											{
												OFFSET -0.008216 2.440060 -0.000012
											}
										}
									}
								}
								JOINT mixamorigLeftHandMiddle1
								{
									OFFSET -0.902019 8.435616 -0.141518
									CHANNELS 3 Xrotation Yrotation Zrotation
									JOINT mixamorigLeftHandMiddle2
									{
										OFFSET 0.009087 3.193605 -0.000019
										CHANNELS 3 Xrotation Yrotation Zrotation
										JOINT mixamorigLeftHandMiddle3
										{
											OFFSET -0.005788 3.085163 -0.000010
											CHANNELS 3 Xrotation Yrotation Zrotation
											End Site
											{
												OFFSET -0.003300 2.692937 -0.000004
											}
										}
									}
								}
								JOINT mixamorigLeftHandRing1
								{
									OFFSET 1.132394 8.436696 -0.207104
									CHANNELS 3 Xrotation Yrotation Zrotation
									JOINT mixamorigLeftHandRing2
									{
										OFFSET 0.002227 2.740808 0.000023
										CHANNELS 3 Xrotation Yrotation Zrotation
										JOINT mixamorigLeftHandRing3
										{
											OFFSET -0.005208 2.757587 -0.000008
											CHANNELS 3 Xrotation Yrotation Zrotation
											End Site
											{
												OFFSET 0.002980 2.285017 -0.000001
											}
										}
									}
								}
								JOINT mixamorigLeftHandPinky1
								{
									OFFSET 3.105916 8.079437 0.092949
									CHANNELS 3 Xrotation Yrotation Zrotation
									JOINT mixamorigLeftHandPinky2
									{
										OFFSET 0.002583 2.527384 -0.000020
										CHANNELS 3 Xrotation Yrotation Zrotation
										JOINT mixamorigLeftHandPinky3
										{
											OFFSET -0.001322 2.003400 -0.000023
											CHANNELS 3 Xrotation Yrotation Zrotation
											End Site
											{
												OFFSET -0.001263 1.854526 0.000001
											}
										}
									}
								}
							}
						}
					}
				}
				JOINT mixamorigRightShoulder
				{
					OFFSET -5.949117 13.247830 -0.067294
					CHANNELS 3 Xrotation Yrotation Zrotation
					JOINT mixamorigRightArm
					{
						OFFSET -0.000001 12.472156 0.000001
						CHANNELS 3 Xrotation Yrotation Zrotation
						JOINT mixamorigRightForeArm
						{
							OFFSET 0.000000 23.819853 0.000001
							CHANNELS 3 Xrotation Yrotation Zrotation
							JOINT mixamorigRightHand
							{
								OFFSET 0.000000 24.559925 -0.000003
								CHANNELS 3 Xrotation Yrotation Zrotation
								JOINT mixamorigRightHandThumb1
								{
									OFFSET 2.812494 2.442845 1.234953
									CHANNELS 3 Xrotation Yrotation Zrotation
									JOINT mixamorigRightHandThumb2
									{
										OFFSET 0.604442 3.080987 0.000017
										CHANNELS 3 Xrotation Yrotation Zrotation
										JOINT mixamorigRightHandThumb3
										{
											OFFSET -0.326907 3.048919 0.000008
											CHANNELS 3 Xrotation Yrotation Zrotation
											End Site
											{
												OFFSET -0.277533 2.551217 0.000006
											}
										}
									}
								}
								JOINT mixamorigRightHandIndex1
								{
									OFFSET 3.351132 8.367216 0.110744
									CHANNELS 3 Xrotation Yrotation Zrotation
									JOINT mixamorigRightHandIndex2
									{
										OFFSET -0.002762 3.068331 -0.000010
										CHANNELS 3 Xrotation Yrotation Zrotation
										JOINT mixamorigRightHandIndex3
										{
											OFFSET 0.002070 2.779741 -0.000016
											CHANNELS 3 Xrotation Yrotation Zrotation
											End Site
											{
												OFFSET 0.000694 2.490071 0.000007
											}
										}
									}
								}
								JOINT mixamorigRightHandMiddle1
								{
									OFFSET 0.917753 8.605752 -0.172051
									CHANNELS 3 Xrotation Yrotation Zrotation
									JOINT mixamorigRightHandMiddle2
									{
										OFFSET -0.001352 3.230438 -0.000024
										CHANNELS 3 Xrotation Yrotation Zrotation
										JOINT mixamorigRightHandMiddle3
										{
											OFFSET 0.000683 3.025543 -0.000000
											CHANNELS 3 Xrotation Yrotation Zrotation
											End Site
											{
												OFFSET 0.000669 2.688761 0.000029
											}
										}
									}
								}
								JOINT mixamorigRightHandRing1
								{
									OFFSET -1.163309 8.798316 -0.229231
									CHANNELS 3 Xrotation Yrotation Zrotation
									JOINT mixamorigRightHandRing2
									{
										OFFSET 0.001308 2.674105 -0.000012
										CHANNELS 3 Xrotation Yrotation Zrotation
										JOINT mixamorigRightHandRing3
										{
											OFFSET -0.002177 2.630942 -0.000002
											CHANNELS 3 Xrotation Yrotation Zrotation
											End Site
											{
												OFFSET 0.000870 2.160648 0.000000
											}
										}
									}
								}
								JOINT mixamorigRightHandPinky1
								{
									OFFSET -3.105574 7.894262 0.220213
									CHANNELS 3 Xrotation Yrotation Zrotation
									JOINT mixamorigRightHandPinky2
									{
										OFFSET 0.002804 2.509986 0.000005
										CHANNELS 3 Xrotation Yrotation Zrotation
										JOINT mixamorigRightHandPinky3
										{
											OFFSET -0.001254 2.099178 0.000025
											CHANNELS 3 Xrotation Yrotation Zrotation
											End Site
											{
												OFFSET -0.001552 1.845638 -0.000009
											}
										}
									}
								}
							}
						}
					}
				}
			}
		}
	}
	JOINT mixamorigLeftUpLeg
	{
		OFFSET 9.392097 -5.572212 -0.093209
		CHANNELS 3 Xrotation Yrotation Zrotation
		JOINT mixamorigLeftLeg
		{
			OFFSET 0.000000 42.318310 -0.000000
			CHANNELS 3 Xrotation Yrotation Zrotation
			JOINT mixamorigLeftFoot
			{
				OFFSET -0.000001 39.099655 0.000000
				CHANNELS 3 Xrotation Yrotation Zrotation
				JOINT mixamorigLeftToeBase
				{
					OFFSET -0.000001 14.706295 -0.000001
					CHANNELS 3 Xrotation Yrotation Zrotation
					End Site
					{
						OFFSET -0.000001 5.953888 0.000000
					}
				}
			}
		}
	}
	JOINT mixamorigRightUpLeg
	{
		OFFSET -9.392097 -5.572212 -0.015229
		CHANNELS 3 Xrotation Yrotation Zrotation
		JOINT mixamorigRightLeg
		{
			OFFSET -0.000000 42.325943 -0.000000
			CHANNELS 3 Xrotation Yrotation Zrotation
			JOINT mixamorigRightFoot
			{
				OFFSET -0.000002 39.093311 -0.000000
				CHANNELS 3 Xrotation Yrotation Zrotation
				JOINT mixamorigRightToeBase
				{
					OFFSET -0.000000 14.599653 -0.000002
					CHANNELS 3 Xrotation Yrotation Zrotation
					End Site
					{
						OFFSET -0.000001 6.036281 0.000000
					}
				}
			}
		}
	}
}
MOTION
Frames: 6
Frame Time: 0.03333333333333333
0.253328 82.632233 1.323383 -12.836356 -45.406670 -9.531871 20.068214 2.823286 -1.729439 0.594921 0.548900 -1.256690 0.601902 0.498821 -1.273735 15.099100 3.675932 -3.647119 -3.731722 21.817734 -7.819092 95.386780 -16.781603 -82.144367 46.980447 -36.035484 43.500180 1.374783 1.481364 109.319792 -6.888378 -5.734368 -0.652839 22.238422 -0.613089 30.161907 -3.754447 -6.383139 -23.869379 -6.096132 -14.463509 -28.057923 89.986326 -1.429089 -7.190951 68.329493 -4.886596 -7.065510 21.162119 -0.472179 -2.770749 88.568400 -1.233367 -7.090929 84.267396 -6.816466 -7.484376 32.511438 -1.095667 -3.943774 97.379289 -2.655567 -8.068141 74.785060 -5.682420 -7.483875 40.275220 -1.734655 -4.771787 84.371322 -0.869121 -10.842715 82.145023 -2.510573 -6.959813 30.533106 -1.029179 -3.846182 107.129508 17.186539 63.745423 42.231826 4.583719 -62.805550 1.369987 -1.438020 -108.894514 -1.278666 -7.406688 4.534907 14.543053 -20.387560 -14.132498 -0.787592 9.701798 -0.191745 -6.513295 0.025435 27.897067 80.035795 -0.469360 1.662657 81.294014 5.640630 6.560183 31.736111 0.958855 3.437090 88.005553 0.417194 5.572437 90.923904 6.732464 6.614612 37.638096 1.373555 4.030160 95.108835 1.440107 6.946536 89.071969 6.651516 6.742150 37.726433 1.455198 4.210060 98.245347 1.401306 8.426632 93.693540 6.719824 6.326197 45.803706 1.953582 4.540558 -29.547756 10.496035 -156.874575 -62.251165 -2.558092 -2.285028 80.183239 -6.437975 4.798707 35.079809 -0.637641 0.264817 -12.890336 -8.433410 161.018027 -55.294081 -7.651429 -7.774684 92.774168 14.225930 -3.310632 34.552390 0.062623 -0.043206 
0.060179 82.637169 1.047421 -13.140743 -45.163714 -9.606075 20.074071 2.755229 -1.599994 0.649220 0.536025 -1.253016 0.656065 0.486010 -1.269426 15.035179 3.633713 -3.644260 -4.069036 21.620831 -7.807012 95.314489 -16.945153 -82.314512 46.529476 -35.659867 42.790555 1.373896 1.483868 109.423396 -6.853369 -5.577948 -0.495481 22.224930 -0.642068 30.180086 -3.707214 -6.374584 -23.857126 -6.051954 -14.467312 -28.021107 89.980639 -1.428363 -7.190371 68.307087 -4.883861 -7.064531 21.168616 -0.472472 -2.771528 88.545338 -1.230441 -7.088457 84.275892 -6.817552 -7.484452 32.525546 -1.096612 -3.945326 97.370051 -2.654259 -8.067345 74.811213 -5.685798 -7.484764 40.293378 -1.736188 -4.773668 84.414149 -0.874220 -10.847766 82.120621 -2.507612 -6.957652 30.516975 -1.028097 -3.844340 106.910436 16.836246 63.966525 42.563072 4.956490 -62.881605 1.367420 -1.445493 -109.205574 -1.114183 -7.045748 4.693526 14.539547 -20.212936 -14.199639 -0.787551 9.701822 -0.191763 -6.581027 0.047313 27.950409 80.160330 -0.453610 1.786175 81.378176 5.650219 6.561585 31.518129 0.945846 3.415690 88.042726 0.421793 5.607777 90.735776 6.710842 6.615002 37.654652 1.374931 4.031664 95.144803 1.444589 6.946245 88.917451 6.633228 6.741747 37.550560 1.442882 4.193637 98.621124 1.453439 8.524784 93.659204 6.716018 6.326402 45.790231 1.952507 4.539520 -29.301889 10.525718 -156.797617 -61.930179 -2.196265 -2.205510 79.861232 -6.582971 4.732073 35.049599 -0.708342 0.266109 -12.732456 -8.668343 161.017069 -55.535947 -7.645282 -7.760715 92.982968 14.091085 -3.348733 34.462688 0.053599 -0.036985 
-0.198184 82.861626 0.701116 -13.198923 -44.924027 -9.624841 19.858679 2.744790 -1.449104 0.663177 0.529084 -1.241928 0.669957 0.479892 -1.257910 15.004799 3.582588 -3.588733 -4.185087 21.361988 -7.747634 95.267252 -16.960337 -82.406680 46.237551 -35.599017 42.551212 1.374232 1.482877 109.383718 -6.746728 -5.597435 -0.539196 22.183681 -0.667620 30.163264 -3.749151 -6.384223 -23.873475 -6.019942 -14.471245 -27.998040 90.006527 -1.431723 -7.193091 68.286443 -4.881344 -7.063613 21.166897 -0.472406 -2.771316 88.541555 -1.229956 -7.088031 84.273734 -6.817280 -7.484431 32.535259 -1.097270 -3.946384 97.369595 -2.654192 -8.067311 74.837890 -5.689208 -7.485688 40.304760 -1.737146 -4.774828 84.484298 -0.882576 -10.855973 82.078394 -2.502495 -6.953893 30.490141 -1.026314 -3.841282 106.733821 16.483011 64.125979 42.911957 5.486219 -63.111286 1.364029 -1.455054 -109.607129 -1.228333 -6.848100 4.869037 14.490991 -20.011181 -14.176938 -0.787294 9.701699 -0.191840 -6.561629 0.041611 27.937119 80.178750 -0.450047 1.861331 81.367664 5.649006 6.561409 31.404486 0.939120 3.404501 87.996360 0.416980 5.630467 90.574386 6.692297 6.615286 37.641622 1.373215 4.030472 95.102274 1.439419 6.953749 88.748038 6.613196 6.741265 37.452346 1.434546 4.184430 98.623381 1.455232 8.611852 93.583171 6.707633 6.326842 45.710171 1.946089 4.533345 -28.999136 10.545756 -156.721215 -61.034053 -2.014833 -2.035194 79.205121 -6.753775 4.636846 35.074888 -0.675306 0.266238 -12.431895 -8.917800 161.342679 -55.199719 -7.520029 -7.683654 92.828935 13.928094 -3.412722 34.429469 0.050255 -0.034685 
-0.511961 83.318924 0.272662 -12.930068 -44.690262 -9.526792 19.346688 2.804783 -1.302628 0.644585 0.527979 -1.203489 0.651300 0.481220 -1.219141 15.016268 3.516433 -3.477652 -4.051961 21.009721 -7.643958 95.272523 -16.833386 -82.370326 46.118728 -35.893344 42.871455 1.376050 1.477699 109.166119 -6.592065 -5.742625 -0.747335 22.110700 -0.680629 30.110147 -3.860983 -6.408270 -23.912574 -6.001474 -14.475458 -27.989113 90.064245 -1.439226 -7.199155 68.265173 -4.878749 -7.062682 21.152281 -0.471736 -2.769555 88.559047 -1.232179 -7.089933 84.262050 -6.815776 -7.484323 32.538509 -1.097498 -3.946743 97.378574 -2.655470 -8.068101 74.865020 -5.692711 -7.486612 40.306136 -1.737262 -4.774971 84.577502 -0.893689 -10.866880 82.025461 -2.496092 -6.949182 30.463461 -1.024539 -3.838242 106.566725 16.136744 64.281463 43.259303 6.084622 -63.474681 1.360150 -1.465786 -110.059627 -1.454519 -6.780764 5.181626 14.391532 -19.770086 -14.055954 -0.786675 9.701494 -0.192031 -6.457039 0.008530 27.859964 80.068731 -0.460952 1.891950 81.256410 5.636376 6.559559 31.396077 0.938605 3.403673 87.818483 0.397485 5.645970 90.423446 6.674939 6.615503 37.610177 1.368887 4.027596 94.948981 1.420689 6.973572 88.545353 6.589250 6.740585 37.421345 1.428542 4.181451 98.255530 1.407834 8.695777 93.444489 6.692251 6.327640 45.555767 1.933730 4.521383 -28.666518 10.551140 -156.662484 -59.473647 -2.008883 -1.777706 78.111824 -7.059063 4.465363 35.152179 -0.601194 0.267952 -12.067612 -9.193679 161.918824 -54.259378 -7.345385 -7.433890 92.260131 13.658222 -3.507357 34.475601 0.054883 -0.037888 
-0.876481 83.921951 -0.261197 -12.374871 -44.415818 -9.303266 18.679172 2.747006 -1.146033 0.572594 0.507807 -1.132074 0.578791 0.464935 -1.147027 15.014986 3.483370 -3.349771 -3.889340 20.864067 -7.611312 95.238108 -16.527628 -82.368017 46.144213 -36.353391 43.433956 1.376283 1.477036 109.139003 -6.693877 -6.048272 -1.206941 22.031956 -0.670079 30.074963 -3.943273 -6.426804 -23.943950 -5.999797 -14.478657 -27.993896 90.122505 -1.446807 -7.205260 68.210758 -4.872114 -7.060260 21.119763 -0.470280 -2.765626 88.588974 -1.236002 -7.093175 84.248255 -6.814001 -7.484181 32.528836 -1.096833 -3.945688 97.392485 -2.657455 -8.069316 74.880264 -5.694682 -7.487127 40.306437 -1.737280 -4.775014 84.660738 -0.903640 -10.876621 81.987360 -2.491475 -6.945793 30.458721 -1.024219 -3.837694 106.436235 15.817318 64.391884 43.441803 6.522054 -63.890973 1.356049 -1.476889 -110.527928 -1.741255 -6.885151 5.775116 14.268119 -19.542069 -13.870670 -0.786303 9.701350 -0.192113 -6.325897 -0.032580 27.767191 79.909874 -0.477010 1.923180 81.091464 5.617603 6.556791 31.427053 0.940445 3.406718 87.518913 0.364365 5.655729 90.211044 6.650514 6.615744 37.547756 1.362542 4.021845 94.720587 1.392836 7.000705 88.264684 6.556038 6.739510 37.358848 1.419382 4.175553 97.809533 1.350648 8.739981 93.243211 6.669941 6.328729 45.312609 1.914347 4.502462 -28.370966 10.506620 -156.637298 -57.411887 -2.098001 -1.404471 76.639880 -7.482942 4.217401 35.261814 -0.535177 0.272331 -11.698655 -9.484185 162.670162 -52.911184 -7.070031 -6.984990 91.454108 13.302132 -3.659788 34.552690 0.062628 -0.043280 
-1.274372 84.499535 -0.906468 -11.730834 -44.080237 -9.092935 18.207988 2.572535 -0.862177 0.351154 0.478403 -1.128175 0.357019 0.436425 -1.142985 15.063152 3.478200 -3.191724 -3.907320 20.926270 -7.574439 95.141602 -16.118726 -82.459790 45.995899 -36.722770 43.917998 1.374811 1.481221 109.313022 -7.192315 -6.293933 -1.687081 22.020830 -0.669622 30.107373 -3.977620 -6.434888 -23.957968 -6.003126 -14.479021 -27.997976 90.152067 -1.450655 -7.208350 68.151815 -4.864937 -7.057656 21.074813 -0.468274 -2.760196 88.607305 -1.238326 -7.095162 84.217772 -6.810086 -7.483860 32.513969 -1.095825 -3.944056 97.402204 -2.658836 -8.070166 74.887947 -5.695668 -7.487386 40.308934 -1.737516 -4.775256 84.727940 -0.911677 -10.884499 81.946807 -2.486561 -6.942176 30.450390 -1.023676 -3.836749 106.416925 15.649511 64.368374 43.359989 6.800319 -64.155691 1.351736 -1.488272 -111.009846 -1.766930 -7.217661 6.530732 14.180072 -19.427213 -13.708019 -0.788125 9.702018 -0.191614 -6.208739 -0.066757 27.691766 79.781792 -0.490647 1.946338 80.959785 5.602675 6.554551 31.497841 0.944637 3.413691 87.261648 0.335575 5.670775 90.025372 6.629150 6.615859 37.468782 1.355904 4.014618 94.567356 1.374052 7.026389 87.999492 6.524690 6.738357 37.262834 1.409543 4.166487 97.412347 1.300185 8.716639 93.053672 6.648946 6.329684 45.057408 1.894086 4.482562 -28.205486 10.402884 -156.512141 -55.282528 -2.085755 -0.964924 75.106260 -7.841443 3.977517 35.336606 -0.453332 0.273817 -11.418722 -9.806478 163.493485 -51.619089 -6.808207 -6.392646 90.686186 12.863479 -3.865598 34.587352 0.066124 -0.045635 
